<?xml version="1.0" standalone="no"?>
<!DOCTYPE svg PUBLIC "-//W3C//DTD SVG 20010904//EN"
 "http://www.w3.org/TR/2001/REC-SVG-20010904/DTD/svg10.dtd">
<svg version="1.0" xmlns="http://www.w3.org/2000/svg"
 width="475.000000pt" height="475.000000pt" viewBox="0 0 475.000000 475.000000"
 preserveAspectRatio="xMidYMid meet">
<metadata>
Created by potrace 1.16, written by Peter Selinger 2001-2019
</metadata>
<g transform="translate(0.000000,475.000000) scale(0.100000,-0.100000)"
fill="#000000" stroke="none">
<path d="M0 2375 l0 -2375 2375 0 2375 0 0 2375 0 2375 -2375 0 -2375 0 0
-2375z m2625 2180 c569 -89 1059 -386 1409 -855 218 -292 357 -636 407 -1010
18 -135 15 -440 -5 -575 -48 -316 -160 -611 -326 -864 -79 -120 -242 -323
-229 -285 4 11 18 30 95 127 22 29 63 88 89 132 27 44 57 90 67 101 11 12 20
28 22 35 1 8 4 19 7 24 3 6 9 19 13 30 6 16 5 18 -5 8 -7 -7 -17 -13 -23 -13
-5 0 5 13 22 29 26 23 32 35 30 62 -2 23 1 33 10 32 6 -2 12 2 12 8 0 5 4 8 8
5 12 -7 34 61 29 92 -2 15 -2 21 0 15 5 -15 19 -17 27 -4 12 18 -5 39 -26 33
-17 -4 -20 -2 -15 12 4 10 3 15 -3 11 -6 -3 -10 -1 -10 4 0 6 -7 11 -16 11
-11 0 -14 -8 -12 -27 4 -34 -12 -39 -34 -8 -16 21 -16 25 -3 38 8 8 11 18 8
21 -12 12 -12 36 0 30 7 -3 -1 6 -18 21 -16 14 -60 42 -97 60 -36 19 -69 39
-72 44 -6 9 36 17 155 27 86 7 133 -4 179 -43 l30 -25 11 28 c34 92 69 361 69
534 -1 445 -143 881 -410 1262 -77 110 -301 339 -418 427 -533 402 -1202 537
-1838 372 -784 -205 -1389 -842 -1549 -1634 -63 -314 -58 -615 15 -922 66
-279 190 -544 364 -779 50 -67 87 -109 210 -240 l40 -41 7 35 c4 20 20 45 38
60 19 15 41 50 55 88 14 35 39 85 55 113 17 27 31 55 31 62 0 6 13 24 29 40
17 15 41 58 56 100 43 112 76 169 94 161 54 -22 191 -56 205 -51 17 7 23 67 7
67 -14 0 -23 33 -10 40 6 5 3 9 -10 13 -12 3 -21 13 -21 22 0 14 7 16 48 11
98 -11 135 -19 161 -32 25 -14 28 -13 59 23 36 42 122 211 122 240 -1 10 -7
29 -15 43 -8 14 -14 49 -15 78 0 28 -2 52 -5 52 -3 0 -17 -7 -30 -16 -20 -13
-28 -14 -40 -4 -8 7 -15 21 -15 32 0 10 -11 29 -25 41 -16 14 -30 42 -37 75
l-13 52 -68 0 c-37 0 -83 6 -101 14 -28 12 -38 12 -65 0 -41 -17 -38 -18 -51
6 -12 23 2 60 24 60 7 0 16 14 20 30 3 19 12 30 22 30 13 0 12 3 -5 18 l-21
17 18 95 c19 95 46 163 78 195 15 14 15 18 3 26 -8 5 -25 9 -39 9 -14 0 -43
11 -65 23 -33 18 -40 28 -40 52 0 28 2 30 46 33 41 3 47 6 61 38 15 33 15 35
-5 46 -61 32 -156 161 -143 193 3 8 46 10 143 7 98 -3 146 -1 162 8 17 9 20
15 12 23 -29 29 5 118 53 137 19 8 18 9 -14 23 -45 20 -82 69 -78 105 l3 27
155 0 c166 0 168 1 259 62 18 13 44 23 57 23 20 0 24 5 24 30 0 38 40 52 70
25 20 -18 20 -17 20 41 1 100 53 181 112 172 21 -3 23 -7 20 -58 -4 -78 5 -87
111 -95 l87 -7 2 31 c1 17 2 39 2 49 1 13 -7 17 -31 17 -34 1 -62 19 -49 32
12 13 530 6 534 -6 2 -6 8 -11 14 -11 20 0 37 -33 27 -52 -6 -12 -6 -25 1 -37
13 -25 49 -19 72 11 18 25 33 18 33 -15 0 -24 33 -35 63 -21 26 11 43 5 80
-27 18 -16 43 -29 56 -29 13 0 34 -8 47 -19 13 -10 34 -21 46 -25 15 -5 27
-21 34 -47 7 -21 18 -44 26 -50 7 -6 13 -22 13 -34 0 -28 21 -47 39 -36 7 5
21 7 30 4 10 -2 25 8 39 26 24 33 55 39 84 17 15 -11 16 -15 3 -32 -12 -16
-17 -17 -34 -6 -42 25 -47 12 -25 -68 6 -25 -12 -46 -28 -32 -7 6 -36 15 -63
19 -38 6 -51 13 -53 28 -10 54 -72 77 -72 27 0 -15 -5 -33 -12 -40 -8 -8 -8
-15 -1 -24 6 -7 13 -30 17 -50 4 -21 11 -38 16 -38 11 0 23 -42 24 -81 1 -19
15 -38 49 -66 68 -56 198 -123 239 -123 35 0 58 -15 58 -37 0 -15 -51 -43 -80
-43 -30 0 -34 -23 -11 -69 12 -22 21 -58 21 -79 0 -22 7 -56 15 -75 18 -44 21
-157 3 -157 -6 0 -31 -9 -54 -21 l-43 -20 16 -37 c8 -20 18 -73 21 -116 4 -65
9 -84 25 -97 21 -16 21 -16 -11 -66 -40 -62 -109 -121 -190 -162 l-62 -31 0
-64 c0 -110 -34 -158 -88 -125 -23 14 -125 -5 -143 -27 -33 -40 -194 -99 -239
-87 -35 9 -48 -13 -55 -98 -5 -60 -4 -83 6 -96 8 -9 23 -39 34 -67 17 -41 29
-55 61 -71 47 -24 87 -62 79 -75 -9 -15 -35 -12 -42 5 -3 9 -28 27 -55 41
l-49 25 16 -31 c18 -35 12 -66 -33 -155 -16 -32 -21 -50 -13 -53 6 -2 17 -9
24 -16 41 -40 144 -119 175 -135 20 -10 69 -28 107 -41 39 -13 104 -40 145
-60 41 -20 93 -43 115 -50 22 -7 48 -20 59 -29 17 -15 21 -13 62 33 43 47 45
48 64 31 16 -15 22 -16 35 -5 9 7 17 11 20 8 8 -7 -108 -104 -182 -152 -249
-161 -539 -271 -851 -323 -147 -24 -504 -24 -647 1 -377 64 -675 191 -975 415
-386 288 -673 721 -790 1190 -47 189 -64 325 -64 531 0 350 70 653 223 960
331 664 968 1106 1716 1190 112 12 420 4 540 -15z m156 -81 c57 -13 72 -21 82
-41 9 -21 8 -27 -7 -35 -19 -10 -54 -83 -65 -133 -5 -23 -12 -30 -31 -30 -23
0 -25 4 -28 55 -2 30 -7 59 -12 65 -5 6 -18 39 -29 73 -22 73 -25 72 90 46z
m401 -133 c96 -40 265 -139 378 -221 112 -81 113 -87 39 -171 -21 -23 -34 -29
-68 -29 -22 0 -41 4 -41 9 0 5 -13 11 -29 14 -15 3 -51 19 -78 35 -34 20 -59
28 -77 25 -18 -4 -26 -1 -26 8 0 8 -13 23 -30 34 -31 21 -49 54 -56 102 -2 15
-7 48 -10 73 -6 45 -36 93 -84 138 -29 28 -22 26 82 -17z m-1409 -302 c83 -22
185 -50 226 -62 l74 -22 -64 -39 -64 -38 -105 27 c-169 44 -156 45 -173 -17
-9 -29 -23 -82 -33 -118 -9 -36 -21 -71 -27 -77 -10 -14 -110 -73 -122 -73 -7
0 -1 39 21 115 7 28 30 109 49 180 20 72 39 138 41 148 3 9 10 17 15 17 5 0
78 -18 162 -41z m731 -5 c-2 -77 -9 -114 -22 -114 -7 0 -11 4 -7 9 3 5 -5 11
-17 13 -13 2 -27 13 -33 26 -5 12 -18 22 -28 22 -14 0 -16 -5 -11 -25 6 -26
-8 -33 -35 -16 -9 6 -10 11 -2 15 16 10 14 36 -3 36 -8 0 -16 -12 -18 -27 -3
-29 -16 -37 -37 -24 -20 13 -6 44 30 65 29 17 31 17 43 1 10 -14 17 -16 32 -7
10 6 15 12 11 12 -20 0 16 40 38 40 13 0 27 5 30 11 14 21 30 1 29 -37z m61
-163 c10 -17 66 -40 82 -34 14 5 28 -9 36 -34 4 -13 -272 -14 -296 -1 -12 6
-35 12 -52 12 -23 1 -31 6 -33 24 -2 12 -8 22 -13 22 -5 0 -9 5 -9 10 0 13
277 14 285 1z m791 -121 c8 0 22 -16 31 -35 19 -39 38 -36 29 5 -3 20 -1 30
10 34 15 6 254 -4 254 -11 0 -2 -5 -12 -12 -23 -10 -16 -9 -24 10 -49 12 -16
19 -36 16 -44 -11 -30 -106 -56 -131 -35 -7 6 -13 7 -13 3 0 -4 -6 -3 -13 3
-30 25 -47 -14 -50 -111 -1 -29 -5 -37 -17 -34 -8 2 -14 8 -13 15 2 6 -12 19
-29 28 -32 17 -32 17 -9 26 15 5 21 13 17 23 -3 9 3 19 14 25 11 6 20 19 20
30 0 24 27 32 88 25 47 -5 50 -4 45 14 -6 23 -60 42 -95 34 -13 -3 -31 -15
-40 -27 -17 -20 -18 -20 -48 -4 -23 13 -37 15 -57 7 -47 -18 -112 32 -72 56 6
4 8 14 4 23 -7 18 14 34 33 27 8 -3 20 -5 28 -5z m-2098 -196 c31 -21 29 -76
-8 -188 -16 -50 -35 -111 -41 -136 -10 -40 -12 -43 -24 -26 -26 35 -86 200
-87 236 0 47 26 104 55 118 33 16 80 14 105 -4z m2670 -97 c82 -21 122 -36
122 -46 0 -12 -103 -403 -116 -440 -7 -20 -23 -2 -59 64 l-27 49 32 117 c18
65 30 123 28 131 -3 7 -45 23 -94 36 -153 40 -155 41 -191 106 -18 32 -33 62
-33 66 0 5 48 -5 108 -21 59 -16 162 -44 230 -62z m-2943 -148 c10 -30 29 -76
42 -102 39 -79 30 -84 -67 -34 -135 69 -166 139 -93 217 l38 39 31 -33 c17
-18 39 -58 49 -87z m-135 -264 c31 -19 77 -43 103 -54 26 -11 47 -24 47 -30 0
-15 -147 -43 -206 -39 -30 1 -54 0 -54 -4 0 -5 -5 -8 -11 -8 -6 0 -9 6 -6 13
2 6 -2 20 -10 29 -8 9 -17 34 -20 56 -5 34 -2 42 23 61 34 27 57 23 134 -24z
m157 -239 c-5 -12 -1 -13 24 -4 30 10 64 4 56 -10 -3 -4 8 -27 25 -51 22 -34
26 -46 17 -52 -8 -4 -19 -3 -26 3 -21 17 -66 -18 -60 -48 2 -13 0 -24 -4 -24
-5 0 -8 -10 -8 -22 1 -13 -1 -30 -5 -39 -4 -10 -3 -20 3 -24 13 -7 15 -95 3
-95 -5 0 -16 6 -26 13 -14 10 -15 17 -7 40 12 30 -2 71 -34 97 -14 11 -18 10
-30 -7 -19 -27 -53 -19 -61 12 -5 21 -9 22 -46 13 -52 -11 -101 14 -106 56 -5
39 20 62 92 85 34 11 86 31 116 45 62 29 85 33 77 12z m-647 -75 c0 -10 10
-25 22 -33 19 -13 22 -23 20 -62 -1 -26 -4 -52 -7 -57 -9 -14 -37 -11 -57 7
-23 22 -44 6 -58 -46 -8 -31 -16 -40 -40 -45 -20 -4 -32 -14 -36 -30 -8 -32
23 -95 47 -95 11 0 19 -4 19 -10 0 -13 -34 -30 -61 -30 -21 0 -22 1 -16 118 4
64 7 132 7 150 0 18 3 31 8 29 4 -3 7 14 7 36 0 40 2 42 29 42 16 1 31 6 34
13 5 17 29 15 36 -4 8 -20 26 -9 26 17 0 10 5 19 10 19 6 0 10 -8 10 -19z
m3933 -496 c21 -13 27 -25 27 -51 0 -45 -36 -67 -137 -84 -42 -6 -92 -18 -112
-24 -59 -21 -91 -27 -91 -18 0 5 27 43 59 84 69 88 124 121 187 115 22 -2 52
-12 67 -22z m-2897 -130 c4 -8 12 -15 20 -15 8 0 14 -9 14 -20 0 -21 15 -27
25 -10 9 15 51 12 65 -5 7 -8 10 -24 7 -34 -4 -15 2 -21 27 -25 41 -9 66 -44
63 -91 -3 -39 -8 -45 -64 -63 -38 -12 -59 4 -48 38 4 14 1 22 -12 27 -30 11
-87 61 -105 91 -16 26 -16 29 2 40 21 13 16 52 -6 52 -8 0 -14 7 -14 15 0 8 5
15 10 15 6 0 13 -7 16 -15z m-287 -76 c37 -68 37 -72 -6 -223 -24 -86 -25 -90
-7 -103 10 -7 27 -13 38 -14 12 0 61 -13 111 -28 l89 -27 38 -64 c20 -36 35
-66 33 -68 -2 -2 -79 17 -172 42 -92 26 -192 53 -222 61 -30 8 -59 19 -64 24
-5 5 12 83 42 192 27 101 55 203 61 227 6 23 14 42 18 42 4 0 22 -27 41 -61z
m2904 -351 c114 -59 162 -105 165 -158 2 -34 -2 -46 -28 -72 -27 -26 -36 -30
-67 -25 -52 9 -69 30 -99 121 -14 44 -33 91 -40 104 -24 37 -35 72 -23 72 6 0
48 -19 92 -42z m-212 -115 c54 -123 61 -183 27 -233 -15 -22 -38 -40 -63 -48
-46 -15 -71 -11 -108 19 -37 28 -36 81 2 157 16 32 37 85 46 118 21 71 33 96
44 89 5 -2 28 -49 52 -102z m-317 -260 c-19 -71 -47 -174 -62 -230 -19 -73
-31 -103 -42 -103 -16 0 -239 58 -349 91 -35 10 -72 19 -82 19 -29 0 -23 15
19 41 82 53 77 53 200 20 62 -17 120 -31 130 -31 13 0 23 20 41 83 40 141 55
169 114 205 29 18 55 32 59 32 3 0 -9 -57 -28 -127z"/>
<path d="M2775 3598 c-14 -29 -25 -65 -25 -80 0 -27 -13 -37 -24 -19 -8 12
-137 83 -142 78 -3 -2 6 -17 18 -32 21 -27 21 -28 3 -21 -60 24 -214 66 -240
65 l-30 -1 30 -9 c17 -6 35 -11 40 -13 6 -2 23 -8 38 -14 16 -7 33 -12 38 -12
5 0 9 -4 9 -10 0 -5 5 -10 12 -10 6 0 48 -26 92 -59 45 -32 91 -63 103 -70 20
-10 22 -9 16 6 -4 10 -23 43 -43 73 -53 79 -53 81 -36 74 9 -3 13 -10 10 -15
-3 -5 1 -6 8 -4 19 7 84 -44 98 -76 16 -36 58 -75 102 -93 50 -21 55 -7 12 34
-39 37 -94 126 -94 153 0 10 7 32 17 50 l16 32 13 -37 c13 -38 31 -61 69 -88
11 -8 6 1 -11 20 -40 44 -54 72 -54 104 0 41 -19 30 -45 -26z"/>
<path d="M2335 3435 c2 -39 11 -93 20 -120 8 -27 11 -53 7 -56 -4 -4 -54 -12
-111 -18 -85 -9 -120 -18 -192 -51 -95 -43 -118 -47 -138 -27 -10 10 -14 9
-22 -5 -13 -24 -43 -22 -114 7 -40 16 -79 25 -117 25 -36 0 -58 4 -60 12 -3 9
-8 6 -15 -7 -11 -19 -8 -20 68 -17 49 2 79 0 79 -7 0 -5 9 -13 20 -16 11 -3
20 -12 20 -20 0 -7 7 -16 16 -19 19 -7 9 -26 -14 -26 -15 0 -66 -24 -197 -92
-50 -27 -116 -30 -180 -11 -51 16 -109 59 -99 75 3 4 -2 8 -11 8 -14 0 -14 -3
-3 -18 63 -89 134 -142 191 -142 l41 0 -47 -30 c-26 -16 -47 -32 -47 -34 0 -3
15 0 32 5 18 5 46 9 62 9 l29 0 -27 -21 c-35 -27 -107 -49 -164 -49 -38 0 -43
-2 -32 -15 18 -22 115 -48 161 -43 21 2 39 3 39 1 0 -1 -22 -24 -49 -52 -54
-55 -85 -123 -99 -216 -8 -50 -8 -54 7 -41 9 7 32 21 51 31 l35 17 -27 -29
c-16 -16 -28 -32 -28 -35 0 -3 21 5 47 18 49 25 83 31 83 14 0 -44 -82 -122
-141 -135 -29 -7 -30 -8 -13 -26 34 -37 108 -47 195 -24 24 6 25 5 21 -27 -2
-18 2 -46 9 -63 l12 -30 10 33 c5 17 14 32 18 32 18 0 41 -64 37 -106 l-3 -43
31 30 c17 16 33 26 37 23 4 -4 7 0 7 9 0 21 -19 22 -26 3 -13 -33 -31 -24 -30
15 1 21 -3 39 -9 39 -5 0 -3 6 5 13 9 7 14 20 12 31 -3 16 1 14 25 -8 25 -23
29 -35 33 -104 l5 -77 12 70 c10 65 10 71 -8 87 -24 20 -54 88 -39 88 5 0 10
12 10 26 0 42 24 22 32 -27 3 -24 11 -55 16 -69 8 -19 9 -7 6 50 -5 70 -4 73
10 50 15 -25 15 -24 16 26 0 28 7 73 15 101 14 46 20 53 85 91 63 38 120 54
120 34 0 -15 -43 -88 -69 -115 l-26 -29 40 17 c39 16 86 52 113 88 7 9 21 17
31 17 11 0 18 7 17 16 0 9 8 22 20 30 19 13 20 12 22 -26 4 -66 69 -189 92
-175 5 3 11 -5 13 -17 3 -13 3 11 1 52 -1 41 -1 64 2 50 15 -72 117 -240 146
-240 5 0 -5 18 -24 39 -43 50 -72 101 -59 101 6 0 11 -4 11 -8 0 -5 14 -9 32
-9 18 0 34 -5 36 -12 3 -9 7 -9 18 0 12 9 14 5 15 -27 l1 -39 9 40 c27 122 42
164 70 190 31 31 33 29 42 -35 10 -68 48 -147 102 -213 31 -37 60 -67 66 -67
6 0 -5 17 -25 37 -37 39 -51 70 -17 39 10 -10 21 -14 23 -9 3 4 4 3 2 -4 -1
-6 7 -19 19 -30 19 -16 20 -16 8 0 -8 9 -11 20 -8 23 7 7 32 -33 42 -66 7 -23
7 -24 -11 -10 -18 14 -18 14 -5 -2 7 -10 17 -18 20 -18 4 0 7 43 7 97 -1 59 3
97 9 100 6 2 22 -25 35 -59 24 -65 32 -154 17 -195 -14 -38 7 -25 24 15 l16
37 0 -45 c1 -63 -43 -146 -96 -182 l-23 -17 36 -7 c21 -3 47 -2 59 4 17 8 13
9 -22 4 l-45 -5 36 44 c20 24 44 63 53 87 22 54 43 55 51 2 6 -37 8 -39 20
-23 13 16 14 15 8 -12 -4 -16 -12 -33 -18 -37 -7 -5 -4 -8 6 -8 11 0 24 14 32
33 8 17 15 25 15 16 1 -9 7 -22 15 -28 12 -10 15 -7 18 16 2 20 9 29 26 31 69
10 78 -79 26 -255 -5 -17 -2 -21 13 -18 10 2 35 7 55 10 37 6 37 6 18 25 -18
18 -28 50 -15 50 2 0 29 -20 59 -45 l55 -44 11 35 c11 32 9 87 -6 149 -4 17 1
20 30 22 48 2 88 25 158 91 61 58 115 123 87 107 -7 -5 -20 -17 -27 -27 -7
-10 -23 -18 -35 -18 -28 0 -73 38 -82 68 -7 24 3 29 25 10 9 -8 8 -5 -2 7 -44
55 -62 123 -30 111 41 -16 121 -71 131 -90 9 -19 10 -18 10 9 1 48 -18 116
-50 178 -16 32 -29 59 -29 62 0 2 21 5 48 7 l47 3 -30 13 c-44 18 -58 27 -63
40 -5 17 51 15 95 -3 19 -8 38 -15 41 -15 2 0 2 23 -1 52 -5 35 -17 66 -37 95
-29 40 -30 59 -2 31 21 -21 14 8 -15 67 -14 30 -35 63 -47 72 -20 18 -20 18
-3 -7 21 -31 57 -97 57 -105 0 -3 -9 -1 -21 5 -36 20 -39 6 -8 -30 17 -19 37
-46 44 -60 19 -36 30 -100 17 -100 -18 0 -116 72 -176 129 -52 49 -127 150
-164 220 l-12 24 57 -6 c32 -4 83 -13 113 -21 47 -12 52 -12 36 0 -18 12 -9
14 80 14 l99 0 -68 24 c-73 26 -90 36 -170 96 -28 22 -65 42 -80 46 -29 6 -29
7 -23 54 6 41 3 54 -19 86 -27 40 -32 40 -13 -1 6 -14 15 -25 20 -25 13 0 10
-44 -4 -62 -7 -8 -20 -18 -28 -20 -12 -5 -15 7 -15 66 0 39 4 77 8 83 4 7 3
22 -3 33 -12 23 -25 27 -16 5 3 -8 2 -25 -3 -36 l-8 -22 -19 22 c-11 11 -30
40 -42 64 -32 64 -58 88 -154 139 -91 48 -77 31 22 -27 51 -30 87 -59 101 -82
24 -39 35 -94 18 -90 -14 3 -36 -30 -26 -39 3 -4 13 -1 22 6 10 8 15 9 15 1 0
-6 -4 -11 -9 -11 -5 0 -11 -9 -14 -20 -3 -11 -1 -18 4 -14 5 3 9 -2 9 -10 0
-22 -13 -20 -35 4 -9 10 -43 36 -74 57 -31 21 -58 41 -61 44 -3 3 -30 17 -60
31 -46 22 -78 28 -202 37 -227 16 -347 63 -389 155 l-20 41 6 -70z m41 -36
c46 -51 191 -92 382 -109 62 -5 125 -15 139 -22 16 -8 34 -33 48 -63 l22 -50
-56 28 c-69 34 -177 55 -194 38 -9 -9 -6 -13 11 -17 34 -9 26 -22 -20 -35
-141 -40 -310 38 -342 156 -7 28 -16 60 -20 73 -9 28 5 28 30 1z m-67 -300
c17 -6 31 -15 31 -20 0 -10 -64 -40 -125 -59 -54 -17 -130 -57 -185 -98 -24
-18 -46 -29 -48 -23 -2 6 -10 11 -18 11 -8 0 -14 7 -14 15 0 12 -16 15 -82 15
-67 0 -88 4 -108 20 l-25 20 71 0 c87 0 141 18 199 66 25 20 62 42 82 50 46
16 178 18 222 3z m721 -84 c23 -12 70 -63 70 -77 0 -2 -30 -4 -67 -5 -38 -1
-86 -8 -108 -16 -22 -8 -42 -14 -43 -12 -9 9 24 82 45 103 28 26 62 28 103 7z
m364 -14 c9 -14 121 -89 158 -105 l33 -14 -46 -1 c-25 -1 -81 8 -124 19 -43
11 -97 20 -119 21 -23 0 -49 4 -59 8 -17 6 -16 9 8 26 15 11 32 25 39 31 24
23 99 33 110 15z"/>
<path d="M1842 1543 c-16 -49 -33 -96 -37 -107 -8 -18 -7 -18 17 -2 23 15 26
15 40 -1 22 -26 30 -69 15 -81 -8 -7 -23 -5 -50 8 -37 18 -37 18 -52 -3 -19
-27 -19 -37 -1 -37 8 0 16 -7 20 -15 6 -17 42 -20 51 -5 3 6 17 10 30 10 13 0
26 4 30 9 3 5 18 12 33 16 42 10 71 54 73 111 1 47 -1 51 -64 117 -37 37 -68
67 -71 67 -2 0 -18 -39 -34 -87z"/>
<path d="M2050 1473 c0 -28 -2 -79 -5 -114 -4 -55 -3 -58 5 -24 5 22 9 67 10
100 l0 60 43 -45 c23 -25 47 -55 53 -65 10 -19 12 -19 85 -1 119 28 313 87
324 98 7 7 2 9 -15 4 -138 -37 -265 -67 -313 -72 -58 -7 -59 -6 -100 32 -23
22 -52 48 -64 58 l-23 19 0 -50z"/>
<path d="M1900 1280 c-42 -18 -43 -19 -15 -19 25 -1 27 -3 15 -15 -14 -14 -39
-20 -67 -17 -19 2 -16 19 5 24 9 2 -5 3 -33 1 -48 -2 -50 -3 -47 -31 2 -15 10
-47 19 -70 8 -23 13 -54 11 -67 -3 -14 -1 -23 3 -20 5 3 9 25 9 49 0 43 0 43
43 51 23 5 48 9 56 9 8 0 17 7 19 15 3 8 15 36 28 63 25 52 21 54 -46 27z"/>
<path d="M2145 950 c-11 -4 -32 -6 -47 -3 -40 8 -73 -3 -112 -37 -18 -17 -49
-37 -68 -44 -41 -17 -51 -29 -66 -75 -7 -18 -20 -41 -29 -50 -10 -9 -27 -27
-38 -41 -13 -16 -7 -13 17 8 l36 34 0 -67 c0 -37 6 -80 12 -95 10 -24 6 -37
-40 -123 -49 -95 -56 -119 -21 -75 16 19 18 19 24 4 4 -10 3 -15 -3 -11 -6 3
-10 2 -10 -3 0 -6 7 -12 15 -16 10 -3 15 1 15 13 0 14 5 18 20 14 26 -7 36
-23 20 -33 -9 -6 -8 -9 6 -13 29 -8 101 -17 87 -11 -10 4 -10 9 1 20 19 18 37
18 30 0 -3 -8 0 -17 7 -22 7 -4 10 -3 6 3 -4 6 0 17 9 24 14 11 18 11 29 -4
13 -18 41 -24 30 -7 -3 6 -2 10 3 10 14 0 33 -26 25 -33 -9 -10 16 -15 90 -19
l68 -4 -6 82 c-8 90 6 150 36 159 10 3 21 19 24 35 4 17 10 30 13 30 4 0 15
-21 26 -46 26 -65 30 -49 5 25 -16 46 -18 66 -10 74 16 16 14 74 -4 81 -8 3
-15 17 -15 31 0 41 -27 84 -58 91 -15 4 -42 20 -60 36 -18 15 -39 28 -47 28
-18 0 -19 12 -3 28 14 14 11 14 -17 2z"/>
</g>
</svg>
