<svg xmlns="http://www.w3.org/2000/svg" width="1440" height="900" fill="none"><rect id="backgroundrect" width="100%" height="100%" x="0" y="0" fill="none" stroke="none"/>

<defs>
<clipPath id="clip0">
<rect width="1440" height="900" fill="white" id="svg_1"/>
</clipPath>
<filter xmlns:inkscape="http://www.inkscape.org/namespaces/inkscape" id="f009" inkscape:label="Roughen" inkscape:menu="ABCs" inkscape:menu-tooltip="Small-scale roughening to edges and content" color-interpolation-filters="sRGB">
            <feTurbulence numOctaves="3" seed="0" type="turbulence" baseFrequency=".04" result="result91"/>
            <feDisplacementMap scale="6.6" yChannelSelector="G" xChannelSelector="R" in="SourceGraphic" in2="result91"/>
        </filter></defs>
<g class="currentLayer" style=""><title>Layer 1</title><g clip-path="url(#clip0)" id="svg_2" class="selected" filter="" fill="#ff9956" fill-opacity="1">
<path d="M1377.0920764923096,875.3244808769226 C1363.4720764923095,851.4844808769226 1328.6520764923096,852.8744808769226 1316.9620764923095,877.7144808769226 C1312.5120764923095,887.1544808769227 1322.5120764923095,865.9044808769227 1316.9620764923095,877.7144808769226 C1305.5520764923097,901.9544808769226 1274.6220764923096,909.4144808769227 1253.4220764923095,893.0244808769226 C1234.1820764923095,878.1644808769227 1228.6720764923095,873.9044808769227 1212.1620764923096,861.1444808769226 C1185.2720764923097,840.3644808769226 1145.9120764923096,852.2744808769226 1135.0620764923096,884.4744808769226 C1131.3120764923096,895.6044808769226 1139.4920764923095,871.3244808769226 1135.0620764923096,884.4744808769226 C1127.1420764923096,907.9744808769226 1096.0820764923096,912.9044808769227 1081.2820764923097,893.0144808769226 C1070.2220764923095,878.1444808769226 1071.9420764923095,880.4644808769226 1060.8520764923096,865.5544808769226 C1044.3020764923097,843.3144808769226 1010.4220764923095,845.1444808769226 996.3620764923096,869.0444808769226 C989.7820764923096,880.2244808769226 989.8420764923096,880.1244808769226 980.8120764923095,895.4844808769226 C973.6920764923095,907.5844808769226 955.8120764923095,906.3144808769226 950.4620764923096,893.3344808769226 C944.3220764923095,878.4144808769227 946.4020764923096,883.4644808769226 942.1320764923096,873.0944808769226 C931.8820764923096,848.2044808769226 898.9620764923096,842.9244808769226 881.4420764923095,863.3644808769226 C874.1020764923096,871.9344808769226 889.1020764923096,854.4344808769226 881.4420764923095,863.3644808769226 C862.3020764923095,885.6944808769226 827.6320764923096,885.3044808769226 809.0020764923096,862.5444808769226 C797.3620764923096,848.3144808769226 808.3230764923096,861.7144808769226 799.2230764923096,850.5944808769226 C776.0130764923096,822.2344808769226 731.5120764923096,826.2644808769226 713.7620764923096,858.3244808769226 C708.4620764923096,867.9044808769227 710.9020764923096,863.4944808769226 700.9320764923095,881.5144808769226 C694.8220764923095,892.5544808769226 679.0820764923096,892.9344808769226 672.4420764923095,882.1944808769226 C664.5820764923096,869.4944808769226 664.8120764923095,869.8644808769226 659.1920764923095,860.7744808769226 C646.8220764923095,840.7744808769226 618.0830764923096,839.8144808769226 604.4130764923095,858.9444808769226 C594.9730764923096,872.1444808769226 591.7020764923095,876.7244808769226 581.3320764923096,891.2244808769226 C571.9420764923095,904.3644808769226 551.4330764923096,900.3244808769226 547.7330764923096,884.5944808769226 C544.6330764923096,871.4144808769227 547.3830764923096,883.0844808769226 544.9230764923095,872.6144808769226 C540.3330764923096,853.1144808769226 514.3020764923095,849.1744808769226 504.14207649230957,866.4444808769226 C497.2620764923096,878.1444808769226 501.03207649230956,871.7244808769226 493.2420764923096,884.9844808769226 C482.6920764923096,902.9144808769227 456.77207649230957,902.9144808769227 446.22207649230955,884.9844808769226 C438.42207649230954,871.7244808769226 445.83207649230957,884.3244808769226 439.8620764923096,874.1644808769227 C425.60207649230955,849.9244808769226 390.28207649230956,850.7144808769226 377.1220764923096,875.5744808769226 C371.89207649230957,885.4444808769226 383.14207649230957,864.1944808769226 377.1220764923096,875.5744808769226 C366.7620764923096,895.1344808769226 338.28207649230956,893.6944808769226 329.9420764923096,873.1944808769226 C325.5120764923096,862.2944808769226 332.2620764923096,878.8744808769226 327.5720764923096,867.3644808769226 C321.39207649230957,852.1544808769227 299.35207649230955,853.8144808769226 295.5120764923096,869.7744808769226 C292.85207649230955,880.8044808769226 295.98207649230955,867.7844808769227 293.03207649230956,880.0544808769226 C289.4420764923096,894.9544808769226 269.09207649230956,897.0344808769227 262.5720764923096,883.1644808769227 C256.5020764923096,870.2744808769226 262.2020764923096,882.3744808769226 257.1920764923096,871.7344808769226 C247.6220764923096,851.4044808769227 218.46207649230956,852.1244808769226 209.91207649230958,872.9044808769227 C205.62207649230956,883.3044808769226 211.38207649230958,869.3244808769226 206.17207649230957,881.9744808769226 C199.14207649230957,899.0644808769226 175.38207649230958,900.2044808769226 166.74207649230956,883.8744808769226 C159.83207649230957,870.8444808769226 160.88207649230958,872.8144808769226 153.98207649230957,859.7844808769227 C145.94207649230958,844.6044808769226 123.58207649230957,846.7044808769226 118.51207649230957,863.1144808769226 C113.75207649230958,878.5144808769226 114.44207649230958,876.2744808769226 109.99207649230956,890.6744808769226 C104.41207649230957,908.7444808769226 79.71207649230956,910.9244808769226 71.05257649230957,894.1044808769226 C63.292576492309564,879.0244808769226 67.38257649230957,886.9744808769226 60.542576492309564,873.6944808769226 C49.88257649230957,852.9744808769226 19.58257649230957,855.1144808769226 11.932576492309572,877.1344808769226 C3.5525764923095693,901.2644808769226 -114.35742350769043,928.2444808769226 -147.8779235076904,1024.7444808769226 C-48.00742350769043,1024.7444808769226 552.3720764923096,1027.7744808769226 1653.2520764923095,1033.8344808769225 C1470.7120764923095,930.9044808769227 1378.6620764923096,878.0744808769226 1377.0920764923096,875.3244808769226 z" fill="#ff9956" id="svg_3" filter="" fill-opacity="1"/>
</g></g></svg>